<?xml version="1.0" encoding="UTF-8"?>
<svg id="Layer_1" data-name="Layer 1" xmlns="http://www.w3.org/2000/svg" viewBox="0 0 500 500">
  <defs>
    <style>
      .cls-1 {
        font-family: Gloock-Regular, Gloock;
        font-size: 28px;
      }

      .cls-2 {
        letter-spacing: -.01em;
      }

      .cls-3 {
        fill: #fff;
      }

      .cls-4 {
        letter-spacing: -.03em;
      }

      .cls-5 {
        letter-spacing: 0em;
      }
    </style>
  </defs>
  <g>
    <path d="M74.57,257.54l-24.66-14.9v-.55l24.66-15v1.29l-22.82,13.98,22.82,13.89v1.29Z"/>
    <path d="M76.97,273.55v-.92c1.17-.12,2.35-.69,3.54-1.7s2.31-2.28,3.36-3.82c1.04-1.53,1.84-3.04,2.39-4.51l24.29-59.43h.83l23.92,59.43c2.7,6.69,5.7,10.03,9.02,10.03h.28v.92h-29.44v-.92h.37c2.76,0,4.61-.84,5.57-2.53.95-1.69.81-4.03-.41-7.04l-5.52-13.71h-22.17l-5.15,12.79c-1.1,2.64-.97,5.01.41,7.13,1.38,2.12,3.6,3.24,6.67,3.36v.92h-17.94ZM93.43,248.16h21.25l-10.49-26.5-10.76,26.5Z"/>
    <path d="M146.33,274.84v-62.01c0-2.21-.69-3.99-2.07-5.34-1.38-1.35-3.17-2.02-5.38-2.02v-.92h9.38c3.62,0,6.1-.34,7.45-1.01,1.35-.67,2.33-1.5,2.94-2.48h.92v33.49c1.41-2.76,3.39-4.97,5.93-6.62,2.54-1.66,5.35-2.48,8.42-2.48,3.62,0,6.84,1.07,9.66,3.22,2.82,2.15,5.04,5.06,6.67,8.74,1.62,3.68,2.44,7.88,2.44,12.6s-.91,9.23-2.71,12.97c-1.81,3.74-4.34,6.66-7.59,8.74-3.25,2.08-7.05,3.13-11.41,3.13-7.3,0-12.21-3.04-14.72-9.11l-9.02,9.11h-.92ZM168.32,273.28c3.25,0,5.7-2.02,7.36-6.07,1.66-4.05,2.48-10,2.48-17.85,0-6.87-.64-11.96-1.93-15.27-1.29-3.31-3.31-4.97-6.07-4.97-2.45,0-4.62.89-6.49,2.67-1.87,1.78-3.24,3.77-4.09,5.98v23.09c.24,3.8,1.13,6.82,2.67,9.06,1.53,2.24,3.56,3.36,6.07,3.36Z"/>
    <path d="M194.08,273.55v-.92h.09c2.21,0,3.99-.67,5.34-2.02s2.02-3.13,2.02-5.34v-30.18c0-2.33-.48-4.14-1.43-5.43-.95-1.29-2.96-1.93-6.03-1.93v-.92h9.38c3.13,0,5.52-.34,7.18-1.01,1.53-.67,2.61-1.5,3.22-2.48h.92v41.95c0,2.21.67,3.99,2.02,5.34,1.35,1.35,3.13,2.02,5.34,2.02h.09v.92h-28.15Z"/>
    <path d="M239.53,274.84c-1.59,0-2.79-.06-3.59-.18-.8-.12-1.55-.28-2.25-.46-.71-.18-1.64-.34-2.81-.46-1.17-.12-2.94-.18-5.34-.18l-2.21-17.3h1.2c.98,5.77,2.82,10.11,5.52,13.02,2.7,2.91,5.64,4.37,8.83,4.37s5.5-.64,7.13-1.93c1.62-1.29,2.44-3.04,2.44-5.24,0-1.41-.35-2.65-1.06-3.73-.71-1.07-1.92-2.18-3.63-3.31-1.72-1.13-4.05-2.5-6.99-4.09l-2.67-1.47c-3.37-1.9-5.87-4.12-7.5-6.67-1.63-2.54-2.44-5.29-2.44-8.23,0-4.17,1.52-7.45,4.55-9.84s7.1-3.59,12.19-3.59c1.29,0,2.33.06,3.13.18.8.12,1.56.28,2.3.46.74.18,1.66.34,2.76.46,1.1.12,2.58.18,4.42.18l1.29,14.81h-1.1c-.37-2.88-1.18-5.44-2.44-7.68-1.26-2.24-2.75-3.99-4.46-5.24-1.72-1.26-3.47-1.89-5.24-1.89-2.33,0-4.19.61-5.57,1.84-1.38,1.23-2.07,2.94-2.07,5.15,0,1.66.54,3.17,1.61,4.55,1.07,1.38,3.14,2.87,6.21,4.46l2.76,1.38c4.29,2.21,7.42,4.51,9.38,6.9,1.96,2.39,2.94,5.46,2.94,9.2,0,9.57-5.77,14.41-17.3,14.54Z"/>
    <path d="M257.19,273.55v-.92c2.15,0,3.76-.44,4.83-1.33,1.07-.89,1.78-2.04,2.12-3.45.34-1.41.51-2.94.51-4.6v-50.42c0-2.21-.69-3.99-2.07-5.34-1.38-1.35-3.17-2.02-5.38-2.02v-.92h9.38c3.13,0,5.52-.34,7.18-1.01,1.53-.67,2.61-1.5,3.22-2.48h.92v34.96c1.66-3.25,4.08-5.81,7.27-7.68,3.19-1.87,6.59-2.81,10.21-2.81,2.88,0,5.34.66,7.36,1.98,2.02,1.32,3.57,3.08,4.65,5.29s1.61,4.69,1.61,7.45v25.02c0,2.27.69,4.06,2.07,5.38s3.17,1.98,5.38,1.98v.92h-28.06v-.92c2.21,0,4-.66,5.38-1.98s2.07-3.11,2.07-5.38v-25.94c0-1.35-.18-2.81-.55-4.37-.37-1.56-1.03-2.91-1.98-4.05-.95-1.13-2.29-1.7-4-1.7-1.6,0-3.11.48-4.55,1.43-1.44.95-2.75,2.13-3.91,3.54-1.17,1.41-2.15,2.82-2.94,4.23v24.84c0,1.66.17,3.19.51,4.6.34,1.41,1.04,2.56,2.12,3.45,1.07.89,2.68,1.33,4.83,1.33v.92h-28.15Z"/>
    <path d="M338.61,274.66c-4.23,0-7.99-1.04-11.27-3.13-3.28-2.08-5.84-4.98-7.68-8.69s-2.76-7.96-2.76-12.74,1.01-9.2,3.04-12.88c2.02-3.68,4.8-6.55,8.33-8.6,3.53-2.05,7.53-3.08,12.01-3.08,3.74,0,7.07.74,9.98,2.21,2.91,1.47,5.24,3.54,6.99,6.21s2.74,5.75,2.99,9.25l.09,1.38h-30.91v.46c0,6.5,1.44,11.7,4.32,15.59,2.88,3.9,6.75,5.84,11.59,5.84,2.94,0,5.75-.72,8.42-2.16,2.67-1.44,4.83-3.39,6.49-5.84l.83.28c-1.04,3.13-2.67,5.89-4.88,8.28-2.21,2.39-4.82,4.26-7.82,5.61-3.01,1.35-6.26,2.02-9.75,2.02ZM329.5,243.19h18.68c0-4.84-.78-8.77-2.35-11.78-1.56-3-3.76-4.51-6.58-4.51s-4.94,1.47-6.72,4.42c-1.78,2.94-2.79,6.9-3.04,11.87Z"/>
    <path d="M360.05,273.55v-.92h.09c2.21,0,3.99-.67,5.34-2.02,1.35-1.35,2.02-3.13,2.02-5.34v-52.44c0-2.21-.69-3.99-2.07-5.34-1.38-1.35-3.17-2.02-5.38-2.02v-.92h9.38c3.13,0,5.52-.34,7.18-1.01,1.53-.67,2.61-1.5,3.22-2.48h.92v48.39l15.64-13.16c2.51-2.08,4.02-3.96,4.51-5.61.37-1.53-.03-2.42-1.2-2.67l-1.2-.28v-.92h13.71v.92l-.92.18c-1.47.25-2.99.86-4.55,1.84-1.56.98-3.82,2.7-6.76,5.15l-6.35,5.34,18.31,28.15c1.17,1.53,2.18,2.62,3.04,3.27.86.64,1.81.97,2.85.97v.92h-24.29v-.92c1.53,0,2.54-.12,3.04-.37.55-.18.83-.58.83-1.2,0-.55-.21-1.26-.64-2.12-.25-.49-.54-1.06-.87-1.7-.34-.64-.75-1.36-1.24-2.16l-10.49-16.84-3.4,2.94v14.08c0,2.21.67,3.99,2.02,5.34,1.35,1.35,3.13,2.02,5.34,2.02h.09v.92h-28.15Z"/>
    <path d="M416.35,291.95l20.15-87.4h1.2l-20.15,87.4h-1.2Z"/>
    <path d="M443.31,257.54v-1.29l22.82-13.89-22.82-13.98v-1.29l24.66,15v.55l-24.66,14.9Z"/>
  </g>
  <path d="M205.76,195.25h0c0,6.45-5.23,11.68-11.68,11.68h0c6.45,0,11.68,5.23,11.68,11.68h0c0-6.45,5.23-11.68,11.68-11.68h0c-6.45,0-11.68-5.23-11.68-11.68Z"/>
  <text class="cls-1" transform="translate(324.23 290.49)"><tspan class="cls-2" x="0" y="0">p</tspan><tspan class="cls-5" x="16.35" y="0">a</tspan><tspan x="31.5" y="0">ri</tspan><tspan class="cls-4" x="52.5" y="0">y</tspan><tspan class="cls-5" x="64.15" y="0">a</tspan><tspan x="79.3" y="0">r</tspan></text>
  <rect class="cls-3" x="370.25" y="267.42" width="4.46" height="4.46" rx="2.23" ry="2.23"/>
</svg>