<?xml version="1.0" encoding="UTF-8"?>
<svg id="Layer_1" data-name="Layer 1" xmlns="http://www.w3.org/2000/svg" viewBox="0 0 343.3 170.14">
  <defs>
    <style>
      .cls-1, .cls-2 {
        fill: #fff;
      }

      .cls-3 {
        fill: #f9f9fa;
      }

      .cls-2 {
        font-family: OpenSansRoman-Light, 'Open Sans';
        font-size: 29.34px;
        font-variation-settings: 'wght' 300, 'wdth' 100;
        font-weight: 300;
      }

      .cls-4 {
        fill: #1e1e1e;
      }

      .cls-5 {
        fill: #231f20;
      }
    </style>
  </defs>
  <g>
    <path class="cls-4" d="m321.63,109.48c2,3.24,3.17,7.15,3.17,11.37,0,11.09-8.06,20.09-18,20.09-1.86-.33-3.73-.67-5.59-.99-86.37-15.01-172.75-15.01-259.12,0-1.86.32-3.73.66-5.59.99-9.94,0-18-9-18-20.09,0-4.22,1.17-8.14,3.17-11.37C9.19,103.18.5,89.16.5,72.86c0-22.19,16.12-40.18,36-40.18,88.03-42.65,187.79-43.03,270.3,0,19.88,0,36,17.99,36,40.18,0,16.29-8.69,30.31-21.17,36.62Z"/>
    <path class="cls-4" d="m306.8,141.5c-1.94-.34-3.81-.68-5.67-1-85.92-14.93-173.05-14.93-258.96,0-1.86.32-3.73.66-5.59.99h-.01c-10.28,0-18.57-9.26-18.57-20.64,0-3.98,1.01-7.81,2.93-11.14C8.2,103,0,88.61,0,72.86c0-22.42,16.32-40.67,36.4-40.74C79.72,11.16,127.21.05,173.72,0h.3c46.6,0,92.54,11.11,132.89,32.13,20.08.07,36.39,18.32,36.39,40.74,0,15.75-8.2,30.14-20.93,36.85,1.92,3.33,2.93,7.16,2.93,11.14,0,11.38-8.3,20.65-18.5,20.65Zm-135.15-13.32c43.31,0,86.63,3.74,129.64,11.21,1.86.32,3.73.66,5.59.99,9.57,0,17.42-8.77,17.42-19.54,0-3.97-1.07-7.79-3.08-11.06l-.34-.55.54-.27c12.68-6.41,20.88-20.58,20.88-36.11,0-21.85-15.92-39.62-35.5-39.62l-.21-.05c-82.59-43.07-180.97-43.07-269.89,0l-.2.05C16.92,33.24,1,51.02,1,72.86c0,15.53,8.19,29.7,20.88,36.11l.54.27-.34.55c-2.02,3.26-3.08,7.09-3.08,11.06,0,10.77,7.85,19.53,17.5,19.53,1.78-.33,3.65-.66,5.51-.99,43.01-7.48,86.32-11.21,129.64-11.21Z"/>
  </g>
  <g>
    <path class="cls-3" d="m84.79,80.08c-1.11-3.29-1.67-4.94-2.8-8.22-3.82.53-5.73.8-9.55,1.39-.15,3.47-.22,5.21-.35,8.68-4.49.7-6.74,1.07-11.22,1.85,1.02-15.01,2.3-30,3.82-44.96,5.85-.92,8.78-1.34,14.65-2.13,5.77,13.9,11.31,27.91,16.6,42-4.46.52-6.69.8-11.15,1.4Zm-5.68-16.86c-1.27-3.77-1.91-5.66-3.19-9.43-.36-1.06-.71-2.09-1.03-3.09-.32-1-.62-1.96-.89-2.88-.27-.92-.52-1.77-.74-2.57.03.78.04,1.65.04,2.59,0,.95-.02,1.94-.06,2.99-.04,1.04-.08,2.12-.13,3.24-.19,4.03-.29,6.05-.46,10.08,2.59-.39,3.88-.58,6.47-.94Z"/>
    <path class="cls-3" d="m94.75,34.8c5.43-.6,8.15-.87,13.59-1.36,5.28-.47,9.28.11,11.97,1.67s4.14,4.23,4.38,7.97c.11,1.61-.05,3.1-.46,4.45-.41,1.36-1.03,2.51-1.85,3.47-.82.96-1.81,1.66-2.96,2.11,0,.12.01.18.02.3,1.61.34,2.93.93,3.97,1.77,1.03.84,1.83,1.92,2.38,3.23.55,1.31.88,2.85,1,4.63.17,2.63-.26,4.93-1.29,6.92-1.02,1.99-2.55,3.57-4.59,4.77-2.04,1.19-4.51,1.91-7.42,2.17-5.57.49-8.36.77-13.92,1.38-1.6-14.49-3.2-28.98-4.8-43.47Zm12.73,15.81c.95-.09,1.43-.13,2.38-.22,1.35-.12,2.36-.59,3.03-1.41.67-.82.94-1.97.82-3.46-.11-1.35-.56-2.33-1.36-2.95-.8-.61-1.94-.85-3.44-.72-.89.08-1.33.12-2.22.2.32,3.42.48,5.13.8,8.55Zm.76,8.1c.37,3.96.55,5.93.92,9.89,1.09-.1,1.64-.15,2.73-.25,1.44-.13,2.48-.63,3.12-1.52.64-.88.89-2.17.76-3.86-.08-1.03-.33-1.9-.72-2.6-.4-.7-.95-1.21-1.65-1.54-.7-.33-1.54-.45-2.5-.37-1.06.09-1.59.14-2.65.24Z"/>
    <path class="cls-3" d="m133.82,75.45c-.8-14.56-1.6-29.11-2.39-43.67,4.47-.25,6.71-.35,11.19-.52.55,14.57,1.11,29.14,1.66,43.71-4.18.16-6.27.26-10.45.48Z"/>
    <path class="cls-3" d="m174.46,61.26c-.03,2.71-.63,5.1-1.79,7.18-1.16,2.08-2.77,3.7-4.84,4.89-2.07,1.19-4.5,1.79-7.3,1.82-1.26.01-2.49-.05-3.68-.2s-2.39-.41-3.58-.78c-1.19-.37-2.43-.89-3.72-1.55-.12-4.21-.19-6.32-.31-10.53,1.79,1.1,3.61,1.96,5.47,2.57,1.86.61,3.54.91,5.07.89.87-.01,1.59-.16,2.15-.44.56-.28.97-.67,1.24-1.16.27-.49.41-1.06.4-1.69,0-.64-.12-1.23-.35-1.78-.23-.55-.74-1.15-1.52-1.81-.79-.66-2.02-1.48-3.68-2.45-1.33-.79-2.55-1.6-3.64-2.4-1.09-.81-2.03-1.69-2.82-2.66-.78-.97-1.4-2.09-1.84-3.38-.44-1.28-.69-2.8-.74-4.56-.07-2.59.4-4.86,1.43-6.8,1.03-1.94,2.6-3.47,4.7-4.57,2.1-1.1,4.7-1.67,7.79-1.69,1.95-.01,3.92.24,5.89.76s3.96,1.32,5.96,2.4c-1.23,3.64-1.84,5.46-3.03,9.1-1.6-.97-3.09-1.68-4.46-2.14-1.37-.46-2.66-.68-3.84-.67-.78,0-1.42.14-1.92.39-.49.25-.86.59-1.08,1.01-.23.42-.34.9-.33,1.44,0,.78.15,1.44.43,2,.28.56.85,1.14,1.7,1.76.85.62,2.15,1.43,3.89,2.44,1.84,1.07,3.38,2.21,4.63,3.41,1.25,1.2,2.19,2.55,2.81,4.03.63,1.48.93,3.2.91,5.15Z"/>
    <path class="cls-3" d="m209.68,75.92c-4.18-.28-6.27-.4-10.45-.61.37-7.29.55-10.93.92-18.22-3.82-.19-5.73-.27-9.55-.41-.26,7.29-.39,10.94-.65,18.24-4.18-.15-6.27-.2-10.46-.28.27-14.58.54-29.15.82-43.73,4.48.08,6.72.14,11.19.3-.23,6.61-.35,9.92-.59,16.53,3.88.14,5.81.22,9.69.42.33-6.61.5-9.91.83-16.52,4.47.23,6.71.36,11.18.66-.98,14.55-1.96,29.09-2.94,43.64Z"/>
    <path class="cls-3" d="m238.02,78.48c-8.42-.96-12.64-1.36-21.09-2.03,1.15-14.53,2.3-29.07,3.45-43.6,9.04.71,13.55,1.15,22.57,2.17-.4,3.51-.6,5.26-.99,8.77-4.5-.51-6.75-.75-11.25-1.18-.3,3.14-.45,4.72-.75,7.86,4.13.4,6.19.61,10.31,1.07-.39,3.51-.59,5.26-.98,8.77-4.06-.46-6.1-.67-10.17-1.06-.35,3.68-.53,5.52-.88,9.2,4.33.42,6.49.64,10.81,1.13-.4,3.56-.6,5.33-1.01,8.89Z"/>
    <path class="cls-3" d="m274.74,83.75c-4.58-.8-6.87-1.17-11.46-1.89-1.54-6.84-2.34-10.26-4.02-17.09-1.1.52-1.65.78-2.74,1.3-.81,5.79-1.22,8.69-2.04,14.49-4.15-.58-6.23-.86-10.39-1.37,1.78-14.47,3.57-28.94,5.35-43.41,4.45.55,6.68.84,11.12,1.47-1.06,7.52-1.59,11.29-2.64,18.81.31-.84.74-1.69,1.29-2.54.55-.85,1.18-1.74,1.86-2.67,3.71-4.88,5.59-7.31,9.41-12.14,4.78.75,7.17,1.14,11.94,1.97-5.83,6.94-8.68,10.44-14.25,17.5,2.78,10.21,4.09,15.33,6.55,25.56Z"/>
  </g>
  <circle class="cls-1" cx="17.45" cy="72.76" r="6.55"/>
  <circle class="cls-1" cx="33.51" cy="125.02" r="4.68"/>
  <circle class="cls-1" cx="309.71" cy="125.02" r="4.68"/>
  <circle class="cls-1" cx="322.81" cy="72.76" r="6.55"/>
  <text class="cls-2" transform="translate(93.75 116.82) scale(1.41 1)"><tspan x="0" y="0">PARIYAR</tspan></text>
  <g>
    <path class="cls-5" d="m73.54,144.83c-1.67.16-3.14.58-4.4,1.26-1.26.67-2.29,1.55-3.09,2.64-.8,1.08-1.36,2.33-1.69,3.75-.33,1.42-.4,2.95-.22,4.6.25,2.27.83,4.21,1.75,5.83.92,1.62,2.17,2.81,3.75,3.59,1.58.78,3.46,1.05,5.67.84,1.29-.13,2.44-.33,3.48-.62,1.03-.29,1.99-.62,2.86-1,.06.61.08.92.14,1.53-.82.39-1.76.72-2.81,1.02-1.05.29-2.28.51-3.69.65-2.55.25-4.75-.06-6.6-.95-1.85-.88-3.31-2.24-4.4-4.07-1.09-1.83-1.78-4.03-2.07-6.61-.2-1.85-.11-3.58.27-5.19.39-1.61,1.06-3.04,2.02-4.3s2.18-2.28,3.67-3.07c1.49-.79,3.23-1.28,5.22-1.48,1.26-.12,2.47-.12,3.63,0,1.16.12,2.27.36,3.32.72-.23.64-.35.96-.58,1.6-1.01-.37-2.03-.61-3.07-.72s-2.09-.12-3.17-.01Z"/>
    <path class="cls-5" d="m91.47,142c2.08-.17,3.84-.08,5.27.25,1.43.33,2.53.97,3.31,1.9.78.94,1.22,2.25,1.34,3.94.09,1.26-.08,2.36-.49,3.3-.42.94-1.02,1.73-1.82,2.37s-1.73,1.16-2.81,1.55c3.19,4.32,4.77,6.49,7.89,10.84-.86.06-1.28.09-2.14.15-2.95-4.16-4.44-6.23-7.45-10.36-2.57.2-3.86.3-6.43.52.37,4.34.55,6.51.91,10.85-.72.06-1.08.09-1.8.15-.86-9.97-1.29-14.96-2.15-24.93,2.55-.22,3.83-.33,6.38-.53Zm-.06,1.57c-1.74.14-2.61.21-4.34.36.37,4.39.55,6.59.93,10.99,2.07-.17,3.1-.26,5.16-.42,2.12-.17,3.73-.78,4.85-1.85,1.12-1.07,1.62-2.52,1.48-4.35-.15-2.02-.88-3.36-2.2-4.03-1.32-.67-3.29-.91-5.88-.7Z"/>
    <path class="cls-5" d="m122.59,165.06c-5.61.28-8.41.44-14.02.8-.64-9.99-.96-14.99-1.6-24.98,5.75-.37,8.62-.53,14.38-.82.03.64.05.95.08,1.59-5,.25-7.5.39-12.5.7.24,3.79.35,5.68.59,9.47,4.68-.29,7.01-.42,11.69-.66.03.64.05.95.08,1.59-4.67.24-7.01.37-11.67.66.27,4.3.4,6.45.67,10.75,4.89-.3,7.34-.44,12.23-.69.03.64.05.95.08,1.59Z"/>
    <path class="cls-5" d="m144.48,164.21c-1.5-3.5-2.25-5.25-3.77-8.74-4.35.14-6.53.22-10.88.4-1.29,3.6-1.93,5.4-3.19,9-.74.03-1.11.05-1.84.09,3.56-10.23,5.39-15.33,9.16-25.52.68-.03,1.02-.04,1.69-.06,4.39,9.89,6.54,14.85,10.73,24.79-.76.02-1.14.03-1.9.05Zm-4.41-10.32c-1.55-3.7-2.34-5.56-3.92-9.25-.1-.24-.23-.54-.38-.91-.15-.37-.31-.77-.47-1.18-.16-.42-.33-.81-.48-1.18-.11.4-.22.81-.35,1.21-.13.41-.25.8-.37,1.17-.12.38-.23.71-.34,1.01-1.36,3.79-2.04,5.69-3.37,9.49,3.88-.16,5.81-.23,9.69-.35Z"/>
    <path class="cls-5" d="m156.73,163.95c-.73.01-1.1.02-1.83.03-.16-9.37-.24-14.06-.4-23.43-3.41.06-5.11.09-8.52.18-.02-.64-.02-.95-.04-1.59,7.58-.19,11.37-.25,18.95-.3,0,.64,0,.96.01,1.59-3.41.02-5.12.04-8.52.09.14,9.37.21,14.06.35,23.43Z"/>
    <path class="cls-5" d="m168.88,163.84c-.03-10.01-.04-15.02-.07-25.03.74,0,1.11,0,1.85,0,0,10.01.01,15.02.02,25.03-.72,0-1.09,0-1.81,0Z"/>
    <path class="cls-5" d="m195.69,139.1c-4.13,9.92-6.14,14.88-10.08,24.84-.72-.01-1.08-.01-1.79-.02-3.67-10.06-5.55-15.08-9.42-25.1.78,0,1.17,0,1.95,0,2.85,7.42,4.25,11.14,6.99,18.58.19.54.38,1.06.55,1.57.17.51.33,1,.48,1.47.15.47.28.92.39,1.36.12-.43.26-.87.41-1.32.15-.45.32-.93.51-1.43.18-.51.39-1.05.61-1.63,2.93-7.36,4.42-11.03,7.46-18.37.79.02,1.18.03,1.96.04Z"/>
    <path class="cls-5" d="m212.74,164.7c-5.61-.23-8.42-.33-14.03-.49.28-10.01.41-15.01.69-25.02,5.76.16,8.63.26,14.39.5-.03.64-.04.95-.07,1.59-5-.21-7.51-.3-12.51-.44-.11,3.79-.17,5.69-.28,9.48,4.68.14,7.02.22,11.7.41-.03.64-.04.95-.07,1.59-4.67-.19-7.01-.27-11.68-.41-.13,4.31-.19,6.46-.32,10.76,4.9.14,7.35.23,12.24.44-.03.64-.04.95-.07,1.59Z"/>
    <path class="cls-5" d="m240.42,142.39c-1.68-.11-3.19.06-4.54.51-1.35.46-2.51,1.16-3.48,2.09-.97.94-1.73,2.08-2.29,3.42-.56,1.34-.88,2.84-.98,4.5-.13,2.28.13,4.29.77,6.04.64,1.75,1.67,3.13,3.1,4.16,1.42,1.03,3.24,1.61,5.45,1.76,1.29.09,2.46.08,3.53-.04,1.07-.11,2.06-.28,2.99-.51-.05.61-.07.92-.11,1.54-.88.24-1.86.42-2.94.54-1.08.12-2.33.13-3.75.03-2.56-.17-4.67-.85-6.35-2.02-1.67-1.18-2.9-2.76-3.67-4.74-.77-1.99-1.09-4.27-.95-6.86.1-1.86.48-3.55,1.13-5.07.65-1.52,1.55-2.83,2.7-3.91,1.15-1.08,2.52-1.89,4.12-2.42,1.6-.53,3.39-.73,5.39-.6,1.26.09,2.45.29,3.58.6,1.13.32,2.18.73,3.15,1.25-.33.59-.5.89-.83,1.48-.93-.53-1.9-.93-2.91-1.22s-2.04-.46-3.12-.54Z"/>
    <path class="cls-5" d="m273.01,156.46c-.19,1.9-.61,3.6-1.25,5.12-.64,1.52-1.5,2.8-2.57,3.84-1.07,1.04-2.35,1.8-3.84,2.29-1.49.49-3.18.64-5.09.47-1.92-.17-3.56-.63-4.95-1.38-1.38-.75-2.51-1.73-3.37-2.95-.86-1.22-1.47-2.64-1.83-4.25-.36-1.61-.46-3.37-.32-5.27.2-2.53.82-4.72,1.87-6.57,1.05-1.85,2.51-3.24,4.36-4.18,1.86-.93,4.09-1.28,6.69-1.05,2.49.23,4.55.94,6.18,2.13,1.63,1.2,2.79,2.8,3.48,4.8.69,2,.9,4.33.63,6.99Zm-21.3-1.96c-.18,2.23.01,4.22.57,5.98.55,1.76,1.51,3.17,2.85,4.25,1.35,1.08,3.11,1.71,5.28,1.91,2.2.2,4.05-.1,5.55-.91s2.68-2.02,3.53-3.65c.85-1.62,1.39-3.56,1.61-5.81.36-3.55-.18-6.4-1.61-8.52s-3.75-3.34-6.93-3.63c-2.24-.2-4.14.11-5.69.93-1.56.82-2.76,2.04-3.62,3.67-.86,1.63-1.37,3.55-1.55,5.78Z"/>
    <path class="cls-5" d="m276.99,168.27c.05-.5.21-.87.47-1.11.26-.24.62-.34,1.08-.29.5.05.86.23,1.06.52.2.29.28.69.22,1.19-.06.5-.21.87-.48,1.12-.26.25-.65.34-1.15.29-.45-.05-.78-.22-.99-.52-.2-.3-.28-.7-.23-1.2Z"/>
  </g>
</svg>